<?xml version="1.0" encoding="utf-8"?>
<!-- Generator: Adobe Illustrator 26.4.1, SVG Export Plug-In . SVG Version: 6.00 Build 0)  -->
<svg version="1.1" id="РЎР»РѕР№_1" xmlns="http://www.w3.org/2000/svg" xmlns:xlink="http://www.w3.org/1999/xlink" x="0px" y="0px"
	 viewBox="0 0 322.2 159.8" style="enable-background:new 0 0 322.2 159.8;" xml:space="preserve">
<style type="text/css">
	.st0{fill:#E23229;}
	.st1{fill:#D5D5D5;}
	.st2{clip-path:url(#Слой_4_00000088816274268510178070000015466911775769232816_);fill:#80C2D9;}
	.st3{clip-path:url(#Слой_4_00000088816274268510178070000015466911775769232816_);fill:#FFAEC9;}
	.st4{clip-path:url(#Слой_4_00000088816274268510178070000015466911775769232816_);fill:#FFFFFF;}
</style>
<g id="РЎР»РѕР№_2_00000107590337034200942060000015005616791824970141_">
	<path id="path148" class="st0" d="M235.6,34.7l0.4-2l14.6-1l-17.7,84.4l-2,0.1l17.2-82.4L235.6,34.7z M238.9,123.1l20.7-99.4
		L230,25.8l-3.6,17.4l12.6-0.9l-17,81.9L238.9,123.1z"/>
	<path id="path152" class="st0" d="M308.7,27.6l-10,47.9l13.6-0.9l-0.4,2.1l-13.6,0.9l-7.2,34.3L289,112l7.2-34.3L263.9,80
		L308.7,27.6z M254.9,88.1l32.2-2.2l-7.2,34.3l17-1.2l7.2-34.3l13.7-0.9l3.6-17.2l-13.7,0.9l10-47.9l-12.9,1l-47.3,55.6L254.9,88.1z
		"/>
	<path id="path172" class="st1" d="M30.4,113.9L17,114.8l1.6-7.8l6.1-0.4l-1.1,5.1l7.4-0.5l2.6-12.6l-20.8,1.5l-4.7,22.7l13.4-0.9
		l-2.2,10.3l-6,0.4l1.3-6.3l-7.4,0.5l-2.9,13.8l20.8-1.5L30.4,113.9z"/>
	<path id="path176" class="st1" d="M41,105.5l7.1-0.5l-6.9,32.9l7.4-0.5l6.9-32.9l7.1-0.5l1.6-7.5L42.6,98L41,105.5z"/>
	<path id="path180" class="st1" d="M77.2,110.5l1.6-7.6l6-0.4l-1.6,7.6L77.2,110.5z M85.2,134.8l8.5-40.4L73,95.9l-8.5,40.4l7.4-0.5
		l3.8-17.8l6-0.4l-3.8,17.8L85.2,134.8z"/>
	<path id="path184" class="st1" d="M109.5,133.2l6.9-32.9l7.1-0.5l1.6-7.5l-21.5,1.5l-1.6,7.5l7.1-0.5l-6.9,32.9L109.5,133.2z"/>
	<path id="path188" class="st1" d="M125.5,132.1l7.4-0.5l8.5-40.4l-7.4,0.5L125.5,132.1z"/>
	<path id="path192" class="st1" d="M157,97.5l6-0.4l-5.3,25.5l-6,0.4L157,97.5z M142.8,131l20.7-1.4l8.5-40.4l-20.7,1.4L142.8,131z"
		/>
	<path id="path196" class="st1" d="M180.7,128.4l3.9-18.4l3.4,17.8l6.4-0.4l8.5-40.4l-7.4,0.5l-3.9,18.6L188.2,88l-6.4,0.4
		l-8.5,40.4L180.7,128.4z"/>
	<path id="path204" class="st0" d="M28.9,20.2l-0.8,3.9L321.4,3.9l0.8-3.9L28.9,20.2z"/>
	<path id="path208" class="st0" d="M0,159.8l293.3-20.2l0.8-3.9L0.8,155.9L0,159.8z"/>
	<path id="path1772" class="st0" d="M305,35.4l-36.5,42.2l28.1-1.9L305,35.4z M294.4,56l-2.9,14l-10,0.7L294.4,56z"/>
</g>
<image style="display:none;overflow:visible;" width="375" height="131" xlink:href="../../../../../../Users/Minka/Downloads/Pizdec.png"  transform="matrix(1 0 0 1 336.4575 13.4)">
</image>
<g id="РЎР»РѕР№_3_00000108993951433140066860000016345765347540907173_">
	<g id="РЎР»РѕР№_2">
	</g>
	<g>
		<defs>
			<path id="РЎР»РѕР№_4" d="M169.6,28.4l8.6-0.6l-3.9,20.4l13.3-21.1l8.1-0.5l-14.9,26.8l3.2,28l-9.2,0.7l-2.4-23.5l-5.6,24
				l-8.8,0.6L169.6,28.4z M140.2,50.3l2.1-10.3l8.1-0.6l-2.1,10.3L140.2,50.3z M151,83.3l11.5-54.7l-28,2L123,85.3l10-0.7l5.1-24.1
				l8.1-0.6L141.1,84L151,83.3z M121.8,51.8L103.9,53l2.2-10.4l8.1-0.6l-1.4,6.9l9.8-0.7l3.5-16.8l-27.8,1.9L92,63.7l17.9-1.3
				L107,76.2l-8,0.6l1.8-8.5L90.9,69L87,87.4l27.8-1.9L121.8,51.8z M193.5,81l9.8-0.7l11.3-55.1l-9.8,0.7L193.5,81z M69,44.7
				l8.1-0.6l-7.2,34.2l-8.1,0.6L69,44.7z M49.8,89.6l27.9-1.9L89,33.4l-27.9,1.9L49.8,89.6z M18,73.3l-3.9,18.4l27.8-1.9L49,56.1
				l-18,1.3L33.2,47l8.1-0.6l-1.4,6.9l9.8-0.7l3.5-16.8l-12.3,0.9l-24.7,1.6l8.2,4.2l-5.3,25.6L37,66.8l-2.9,13.7l-8,0.6l1.8-8.5
				L18,73.3z"/>
		</defs>
		<clipPath id="РЎР»РѕР№_4_00000026122232474712755980000012467481248607956144_">
			<use xlink:href="#РЎР»РѕР№_4"  style="overflow:visible;"/>
		</clipPath>
		<polygon style="clip-path:url(#Слой_4_00000026122232474712755980000012467481248607956144_);fill:#80C2D9;" points="14.1,91.8 
			203.3,80.3 214.6,25.2 16.2,38.3 		"/>
		<polygon style="clip-path:url(#Слой_4_00000026122232474712755980000012467481248607956144_);fill:#FFAEC9;" points="15.6,53.1 
			211.4,40.9 205.5,69.8 14.1,81 		"/>
		<polygon style="clip-path:url(#Слой_4_00000026122232474712755980000012467481248607956144_);fill:#FFFFFF;" points="15.3,61 
			209.5,50.3 207.2,61.5 15,69.8 		"/>
	</g>
</g>
</svg>
